# This file uses centimeters as units for non-parametric coordinates.

v 3.765000 1.859504 14.280224
v 3.202700 1.035621 13.545993
v 3.765000 28.762791 -15.908028
v 3.202700 27.938908 -16.642260
v 2.326898 0.381784 12.963304
v 2.326898 27.285070 -17.224949
v 1.223323 -0.038005 12.589195
v 1.223323 26.865282 -17.599056
v 0.000000 -0.182654 12.460285
v 0.000000 26.720633 -17.727966
v -1.223322 -0.038005 12.589195
v -1.223322 26.865282 -17.599056
v -2.326898 0.381785 12.963304
v -2.326898 27.285072 -17.224949
v -3.202700 1.035622 13.545993
v -3.202700 27.938910 -16.642258
v -3.764999 1.859504 14.280224
v -3.764999 28.762791 -15.908027
v -3.958754 2.772785 15.094126
v -3.958754 29.676071 -15.094126
v -3.764999 3.686067 15.908027
v -3.764999 30.589354 -14.280225
v -3.202700 4.509949 16.642258
v -3.202700 31.413237 -13.545994
v -2.326897 5.163786 17.224947
v -2.326897 32.067074 -12.963305
v -1.223322 5.583575 17.599056
v -1.223322 32.486862 -12.589195
v 0.000000 5.728225 17.727966
v 0.000000 32.631512 -12.460286
v 1.223322 5.583575 17.599056
v 1.223322 32.486862 -12.589195
v 2.326897 5.163786 17.224947
v 2.326897 32.067074 -12.963305
v 3.202699 4.509949 16.642258
v 3.202699 31.413237 -13.545994
v 3.764998 3.686066 15.908027
v 3.764998 30.589354 -14.280225
v 3.958753 2.772786 15.094126
v 3.958753 29.676071 -15.094126
v 0.000000 2.772786 15.094126
v 0.000000 29.676071 -15.094126
vt 0.000000 0.159155
vt 0.050000 0.159155
vt 0.000000 0.477465
vt 0.050000 0.477465
vt 0.100000 0.159155
vt 0.100000 0.477465
vt 0.150000 0.159155
vt 0.150000 0.477465
vt 0.200000 0.159155
vt 0.200000 0.477465
vt 0.250000 0.159155
vt 0.250000 0.477465
vt 0.300000 0.159155
vt 0.300000 0.477465
vt 0.350000 0.159155
vt 0.350000 0.477465
vt 0.400000 0.159155
vt 0.400000 0.477465
vt 0.450000 0.159155
vt 0.450000 0.477465
vt 0.500000 0.159155
vt 0.500000 0.477465
vt 0.550000 0.159155
vt 0.550000 0.477465
vt 0.600000 0.159155
vt 0.600000 0.477465
vt 0.650000 0.159155
vt 0.650000 0.477465
vt 0.700000 0.159155
vt 0.700000 0.477465
vt 0.750000 0.159155
vt 0.750000 0.477465
vt 0.800000 0.159155
vt 0.800000 0.477465
vt 0.850000 0.159155
vt 0.850000 0.477465
vt 0.900000 0.159155
vt 0.900000 0.477465
vt 0.950000 0.159155
vt 0.950000 0.477465
vt 1.000000 0.159155
vt 1.000000 0.477465
vt 0.500000 0.000000
vt 0.500000 0.636620
vn 0.966026 -0.192944 -0.171949
vn 0.838881 -0.406363 -0.362144
vn 0.933442 -0.267811 -0.238669
vn 0.838881 -0.406363 -0.362144
vn 0.776903 -0.470048 -0.418899
vn 0.933442 -0.267811 -0.238669
vn 0.838881 -0.406363 -0.362144
vn 0.629620 -0.580003 -0.516890
vn 0.776903 -0.470048 -0.418899
vn 0.629620 -0.580003 -0.516890
vn 0.544315 -0.626273 -0.558125
vn 0.776903 -0.470048 -0.418899
vn 0.629620 -0.580003 -0.516890
vn 0.358728 -0.696869 -0.621038
vn 0.544315 -0.626273 -0.558125
vn 0.358728 -0.696869 -0.621038
vn 0.258446 -0.721194 -0.642717
vn 0.544315 -0.626273 -0.558125
vn 0.358728 -0.696869 -0.621038
vn 0.052721 -0.745520 -0.664395
vn 0.258446 -0.721194 -0.642717
vn 0.052721 -0.745520 -0.664395
vn -0.052721 -0.745520 -0.664395
vn 0.258446 -0.721194 -0.642717
vn 0.052721 -0.745520 -0.664395
vn -0.258446 -0.721194 -0.642717
vn -0.052721 -0.745520 -0.664395
vn -0.258446 -0.721194 -0.642717
vn -0.358728 -0.696869 -0.621038
vn -0.052721 -0.745520 -0.664395
vn -0.258446 -0.721194 -0.642717
vn -0.544315 -0.626273 -0.558125
vn -0.358728 -0.696869 -0.621038
vn -0.544315 -0.626273 -0.558125
vn -0.629620 -0.580003 -0.516889
vn -0.358728 -0.696869 -0.621038
vn -0.544315 -0.626273 -0.558125
vn -0.776903 -0.470048 -0.418899
vn -0.629620 -0.580003 -0.516889
vn -0.776903 -0.470048 -0.418899
vn -0.838881 -0.406363 -0.362144
vn -0.629620 -0.580003 -0.516889
vn -0.776903 -0.470048 -0.418899
vn -0.933442 -0.267811 -0.238669
vn -0.838881 -0.406363 -0.362144
vn -0.933442 -0.267811 -0.238669
vn -0.966026 -0.192945 -0.171949
vn -0.838881 -0.406363 -0.362144
vn -0.933442 -0.267811 -0.238669
vn -0.998609 -0.039360 -0.035077
vn -0.966026 -0.192945 -0.171949
vn -0.998609 -0.039360 -0.035077
vn -0.998609 0.039360 0.035077
vn -0.966026 -0.192945 -0.171949
vn -0.998609 -0.039360 -0.035077
vn -0.966026 0.192945 0.171950
vn -0.998609 0.039360 0.035077
vn -0.966026 0.192945 0.171950
vn -0.933442 0.267811 0.238669
vn -0.998609 0.039360 0.035077
vn -0.966026 0.192945 0.171950
vn -0.838881 0.406363 0.362144
vn -0.933442 0.267811 0.238669
vn -0.838881 0.406363 0.362144
vn -0.776903 0.470048 0.418899
vn -0.933442 0.267811 0.238669
vn -0.838881 0.406363 0.362144
vn -0.629620 0.580003 0.516890
vn -0.776903 0.470048 0.418899
vn -0.629620 0.580003 0.516890
vn -0.544315 0.626273 0.558125
vn -0.776903 0.470048 0.418899
vn -0.629620 0.580003 0.516890
vn -0.358728 0.696869 0.621038
vn -0.544315 0.626273 0.558125
vn -0.358728 0.696869 0.621038
vn -0.258446 0.721194 0.642717
vn -0.544315 0.626273 0.558125
vn -0.358728 0.696869 0.621038
vn -0.052721 0.745520 0.664395
vn -0.258446 0.721194 0.642717
vn -0.052721 0.745520 0.664395
vn 0.052721 0.745520 0.664395
vn -0.258446 0.721194 0.642717
vn -0.052721 0.745520 0.664395
vn 0.258446 0.721194 0.642717
vn 0.052721 0.745520 0.664395
vn 0.258446 0.721194 0.642717
vn 0.358728 0.696869 0.621038
vn 0.052721 0.745520 0.664395
vn 0.258446 0.721194 0.642717
vn 0.544315 0.626273 0.558125
vn 0.358728 0.696869 0.621038
vn 0.544315 0.626273 0.558125
vn 0.629620 0.580003 0.516889
vn 0.358728 0.696869 0.621038
vn 0.544315 0.626273 0.558125
vn 0.776903 0.470048 0.418899
vn 0.629620 0.580003 0.516889
vn 0.776903 0.470048 0.418899
vn 0.838881 0.406363 0.362144
vn 0.629620 0.580003 0.516889
vn 0.776903 0.470048 0.418899
vn 0.933442 0.267811 0.238669
vn 0.838881 0.406363 0.362144
vn 0.933442 0.267811 0.238669
vn 0.966026 0.192945 0.171949
vn 0.838881 0.406363 0.362144
vn 0.933442 0.267811 0.238669
vn 0.998609 0.039360 0.035077
vn 0.966026 0.192945 0.171949
vn 0.998609 0.039360 0.035077
vn 0.998609 -0.039359 -0.035076
vn 0.966026 0.192945 0.171949
vn 0.998609 0.039360 0.035077
vn 0.966026 -0.192944 -0.171949
vn 0.998609 -0.039359 -0.035076
vn 0.966026 -0.192944 -0.171949
vn 0.933442 -0.267811 -0.238669
vn 0.998609 -0.039359 -0.035076
vn 0.000000 -0.665320 0.746558
vn 0.000000 -0.665320 0.746558
vn 0.000000 -0.665320 0.746558
vn 0.000000 -0.665320 0.746558
vn 0.000000 -0.665320 0.746558
vn 0.000000 -0.665320 0.746558
vn 0.000000 -0.665320 0.746558
vn 0.000000 -0.665320 0.746558
vn 0.000000 -0.665320 0.746558
vn 0.000000 -0.665320 0.746558
vn 0.000000 -0.665320 0.746558
vn 0.000000 -0.665320 0.746558
vn 0.000000 -0.665320 0.746558
vn 0.000000 -0.665320 0.746558
vn 0.000000 -0.665320 0.746558
vn 0.000000 -0.665320 0.746558
vn 0.000000 -0.665320 0.746558
vn 0.000000 -0.665320 0.746558
vn 0.000000 -0.665320 0.746558
vn 0.000000 -0.665320 0.746558
vn 0.000000 -0.665320 0.746558
vn 0.000000 -0.665320 0.746558
vn 0.000000 -0.665320 0.746558
vn 0.000000 -0.665320 0.746558
vn 0.000000 -0.665320 0.746558
vn 0.000000 -0.665320 0.746558
vn 0.000000 -0.665320 0.746558
vn 0.000000 -0.665320 0.746558
vn 0.000000 -0.665320 0.746558
vn 0.000000 -0.665320 0.746558
vn 0.000000 -0.665320 0.746558
vn 0.000000 -0.665320 0.746558
vn 0.000000 -0.665320 0.746558
vn 0.000000 -0.665320 0.746558
vn 0.000000 -0.665320 0.746558
vn 0.000000 -0.665320 0.746558
vn 0.000000 -0.665320 0.746558
vn 0.000000 -0.665320 0.746558
vn 0.000000 -0.665320 0.746558
vn 0.000000 -0.665320 0.746558
vn 0.000000 -0.665320 0.746558
vn 0.000000 -0.665320 0.746558
vn 0.000000 -0.665320 0.746558
vn 0.000000 -0.665320 0.746558
vn 0.000000 -0.665320 0.746558
vn 0.000000 -0.665320 0.746558
vn 0.000000 -0.665320 0.746558
vn 0.000000 -0.665320 0.746558
vn 0.000000 -0.665320 0.746558
vn 0.000000 -0.665320 0.746558
vn 0.000000 -0.665320 0.746558
vn 0.000000 -0.665320 0.746558
vn 0.000000 -0.665320 0.746558
vn 0.000000 -0.665320 0.746558
vn 0.000000 -0.665320 0.746558
vn 0.000000 -0.665320 0.746558
vn 0.000000 -0.665320 0.746558
vn 0.000000 -0.665320 0.746558
vn 0.000000 -0.665320 0.746558
vn 0.000000 -0.665320 0.746558
vn 0.000000 0.665320 -0.746558
vn 0.000000 0.665320 -0.746558
vn 0.000000 0.665320 -0.746558
vn 0.000000 0.665320 -0.746558
vn 0.000000 0.665320 -0.746558
vn 0.000000 0.665320 -0.746558
vn 0.000000 0.665320 -0.746558
vn 0.000000 0.665320 -0.746558
vn 0.000000 0.665320 -0.746558
vn 0.000000 0.665320 -0.746558
vn 0.000000 0.665320 -0.746558
vn 0.000000 0.665320 -0.746558
vn 0.000000 0.665320 -0.746558
vn 0.000000 0.665320 -0.746558
vn 0.000000 0.665320 -0.746558
vn 0.000000 0.665320 -0.746558
vn 0.000000 0.665320 -0.746558
vn 0.000000 0.665320 -0.746558
vn 0.000000 0.665320 -0.746558
vn 0.000000 0.665320 -0.746558
vn 0.000000 0.665320 -0.746558
vn 0.000000 0.665320 -0.746558
vn 0.000000 0.665320 -0.746558
vn 0.000000 0.665320 -0.746558
vn 0.000000 0.665320 -0.746558
vn 0.000000 0.665320 -0.746558
vn 0.000000 0.665320 -0.746558
vn 0.000000 0.665320 -0.746558
vn 0.000000 0.665320 -0.746558
vn 0.000000 0.665320 -0.746558
vn 0.000000 0.665320 -0.746558
vn 0.000000 0.665320 -0.746558
vn 0.000000 0.665320 -0.746558
vn 0.000000 0.665320 -0.746558
vn 0.000000 0.665320 -0.746558
vn 0.000000 0.665320 -0.746558
vn 0.000000 0.665320 -0.746558
vn 0.000000 0.665320 -0.746558
vn 0.000000 0.665320 -0.746558
vn 0.000000 0.665320 -0.746558
vn 0.000000 0.665320 -0.746558
vn 0.000000 0.665320 -0.746558
vn 0.000000 0.665320 -0.746558
vn 0.000000 0.665320 -0.746558
vn 0.000000 0.665320 -0.746558
vn 0.000000 0.665320 -0.746558
vn 0.000000 0.665320 -0.746558
vn 0.000000 0.665320 -0.746558
vn 0.000000 0.665320 -0.746558
vn 0.000000 0.665320 -0.746558
vn 0.000000 0.665320 -0.746558
vn 0.000000 0.665320 -0.746558
vn 0.000000 0.665320 -0.746558
vn 0.000000 0.665320 -0.746558
vn 0.000000 0.665320 -0.746558
vn 0.000000 0.665320 -0.746558
vn 0.000000 0.665320 -0.746558
vn 0.000000 0.665320 -0.746558
vn 0.000000 0.665320 -0.746558
vn 0.000000 0.665320 -0.746558
f 1/1/1 2/2/2 3/3/3
f 2/2/4 4/4/5 3/3/6
f 2/2/7 5/5/8 4/4/9
f 5/5/10 6/6/11 4/4/12
f 5/5/13 7/7/14 6/6/15
f 7/7/16 8/8/17 6/6/18
f 7/7/19 9/9/20 8/8/21
f 9/9/22 10/10/23 8/8/24
f 9/9/25 11/11/26 10/10/27
f 11/11/28 12/12/29 10/10/30
f 11/11/31 13/13/32 12/12/33
f 13/13/34 14/14/35 12/12/36
f 13/13/37 15/15/38 14/14/39
f 15/15/40 16/16/41 14/14/42
f 15/15/43 17/17/44 16/16/45
f 17/17/46 18/18/47 16/16/48
f 17/17/49 19/19/50 18/18/51
f 19/19/52 20/20/53 18/18/54
f 19/19/55 21/21/56 20/20/57
f 21/21/58 22/22/59 20/20/60
f 21/21/61 23/23/62 22/22/63
f 23/23/64 24/24/65 22/22/66
f 23/23/67 25/25/68 24/24/69
f 25/25/70 26/26/71 24/24/72
f 25/25/73 27/27/74 26/26/75
f 27/27/76 28/28/77 26/26/78
f 27/27/79 29/29/80 28/28/81
f 29/29/82 30/30/83 28/28/84
f 29/29/85 31/31/86 30/30/87
f 31/31/88 32/32/89 30/30/90
f 31/31/91 33/33/92 32/32/93
f 33/33/94 34/34/95 32/32/96
f 33/33/97 35/35/98 34/34/99
f 35/35/100 36/36/101 34/34/102
f 35/35/103 37/37/104 36/36/105
f 37/37/106 38/38/107 36/36/108
f 37/37/109 39/39/110 38/38/111
f 39/39/112 40/40/113 38/38/114
f 39/39/115 1/41/116 40/40/117
f 1/41/118 3/42/119 40/40/120
f 2/2/121 1/1/122 41/43/123
f 5/5/124 2/2/125 41/43/126
f 7/7/127 5/5/128 41/43/129
f 9/9/130 7/7/131 41/43/132
f 11/11/133 9/9/134 41/43/135
f 13/13/136 11/11/137 41/43/138
f 15/15/139 13/13/140 41/43/141
f 17/17/142 15/15/143 41/43/144
f 19/19/145 17/17/146 41/43/147
f 21/21/148 19/19/149 41/43/150
f 23/23/151 21/21/152 41/43/153
f 25/25/154 23/23/155 41/43/156
f 27/27/157 25/25/158 41/43/159
f 29/29/160 27/27/161 41/43/162
f 31/31/163 29/29/164 41/43/165
f 33/33/166 31/31/167 41/43/168
f 35/35/169 33/33/170 41/43/171
f 37/37/172 35/35/173 41/43/174
f 39/39/175 37/37/176 41/43/177
f 1/41/178 39/39/179 41/43/180
f 3/3/181 4/4/182 42/44/183
f 4/4/184 6/6/185 42/44/186
f 6/6/187 8/8/188 42/44/189
f 8/8/190 10/10/191 42/44/192
f 10/10/193 12/12/194 42/44/195
f 12/12/196 14/14/197 42/44/198
f 14/14/199 16/16/200 42/44/201
f 16/16/202 18/18/203 42/44/204
f 18/18/205 20/20/206 42/44/207
f 20/20/208 22/22/209 42/44/210
f 22/22/211 24/24/212 42/44/213
f 24/24/214 26/26/215 42/44/216
f 26/26/217 28/28/218 42/44/219
f 28/28/220 30/30/221 42/44/222
f 30/30/223 32/32/224 42/44/225
f 32/32/226 34/34/227 42/44/228
f 34/34/229 36/36/230 42/44/231
f 36/36/232 38/38/233 42/44/234
f 38/38/235 40/40/236 42/44/237
f 40/40/238 3/42/239 42/44/240
v -21.980102 -0.140594 8.656657
v -22.648842 -0.140594 7.344181
v -23.690430 -0.140594 6.302593
v -25.002906 -0.140594 5.633853
v -26.457798 -0.140594 5.403421
v -27.912689 -0.140594 5.633854
v -29.225166 -0.140594 6.302594
v -30.266753 -0.140594 7.344181
v -30.935493 -0.140594 8.656658
v -31.165925 -0.140594 10.111549
v -30.935493 -0.140594 11.566440
v -30.266753 -0.140594 12.878917
v -29.225165 -0.140594 13.920504
v -27.912689 -0.140594 14.589244
v -26.457798 -0.140594 14.819676
v -25.002907 -0.140594 14.589243
v -23.690431 -0.140594 13.920503
v -22.648844 -0.140594 12.878916
v -21.980104 -0.140594 11.566440
v -21.749672 -0.140594 10.111549
v -21.980102 42.746555 8.656657
v -22.648842 42.746555 7.344181
v -23.690430 42.746555 6.302593
v -25.002906 42.746555 5.633853
v -26.457798 42.746555 5.403421
v -27.912689 42.746555 5.633854
v -29.225166 42.746555 6.302594
v -30.266753 42.746555 7.344181
v -30.935493 42.746555 8.656658
v -31.165925 42.746555 10.111549
v -30.935493 42.746555 11.566440
v -30.266753 42.746555 12.878917
v -29.225165 42.746555 13.920504
v -27.912689 42.746555 14.589244
v -26.457798 42.746555 14.819676
v -25.002907 42.746555 14.589243
v -23.690431 42.746555 13.920503
v -22.648844 42.746555 12.878916
v -21.980104 42.746555 11.566440
v -21.749672 42.746555 10.111549
v -26.457798 -0.140594 10.111549
v -26.457798 42.746555 10.111549
vt 0.500000 0.000000
vt 0.000000 0.159155
vt 0.050000 0.159155
vt 0.100000 0.159155
vt 0.150000 0.159155
vt 0.200000 0.159155
vt 0.250000 0.159155
vt 0.300000 0.159155
vt 0.350000 0.159155
vt 0.400000 0.159155
vt 0.450000 0.159155
vt 0.500000 0.159155
vt 0.550000 0.159155
vt 0.600000 0.159155
vt 0.650000 0.159155
vt 0.700000 0.159155
vt 0.750000 0.159155
vt 0.800000 0.159155
vt 0.850000 0.159155
vt 0.900000 0.159155
vt 0.950000 0.159155
vt 1.000000 0.159155
vt 0.000000 0.477465
vt 0.050000 0.477465
vt 0.100000 0.477465
vt 0.150000 0.477465
vt 0.200000 0.477465
vt 0.250000 0.477465
vt 0.300000 0.477465
vt 0.350000 0.477465
vt 0.400000 0.477465
vt 0.450000 0.477465
vt 0.500000 0.477465
vt 0.550000 0.477465
vt 0.600000 0.477465
vt 0.650000 0.477465
vt 0.700000 0.477465
vt 0.750000 0.477465
vt 0.800000 0.477465
vt 0.850000 0.477465
vt 0.900000 0.477465
vt 0.950000 0.477465
vt 1.000000 0.477465
vt 0.500000 0.636620
vn 0.966026 0.000000 -0.258445
vn 0.838881 0.000000 -0.544315
vn 0.933442 0.000000 -0.358728
vn 0.776903 -0.000000 -0.629620
vn 0.629620 0.000000 -0.776903
vn 0.544315 -0.000000 -0.838881
vn 0.358728 0.000000 -0.933442
vn 0.258446 -0.000000 -0.966026
vn 0.052721 -0.000000 -0.998609
vn -0.052721 -0.000000 -0.998609
vn -0.258446 0.000000 -0.966026
vn -0.358728 0.000000 -0.933442
vn -0.544315 -0.000000 -0.838881
vn -0.629620 -0.000000 -0.776903
vn -0.776903 -0.000000 -0.629620
vn -0.838881 0.000000 -0.544315
vn -0.933442 -0.000000 -0.358728
vn -0.966026 0.000000 -0.258446
vn -0.998609 -0.000000 -0.052721
vn -0.998609 0.000000 0.052721
vn -0.966026 0.000000 0.258446
vn -0.933442 0.000000 0.358728
vn -0.838881 0.000000 0.544315
vn -0.776903 -0.000000 0.629620
vn -0.629620 0.000000 0.776903
vn -0.544315 -0.000000 0.838881
vn -0.358728 -0.000000 0.933442
vn -0.258446 -0.000000 0.966026
vn -0.052721 -0.000000 0.998609
vn 0.052721 0.000000 0.998609
vn 0.258446 -0.000000 0.966026
vn 0.358728 0.000000 0.933442
vn 0.544315 -0.000000 0.838881
vn 0.629620 0.000000 0.776903
vn 0.776903 0.000000 0.629620
vn 0.838881 0.000000 0.544315
vn 0.933442 -0.000000 0.358728
vn 0.966026 -0.000000 0.258446
vn 0.998609 -0.000000 0.052722
vn 0.998609 0.000000 -0.052720
vn 0.000000 -1.000000 0.000000
vn 0.000000 -1.000000 0.000000
vn 0.000000 -1.000000 0.000000
vn 0.000000 -1.000000 0.000000
vn 0.000000 -1.000000 0.000000
vn 0.000000 -1.000000 0.000000
vn 0.000000 -1.000000 0.000000
vn 0.000000 -1.000000 0.000000
vn 0.000000 -1.000000 0.000000
vn 0.000000 -1.000000 0.000000
vn 0.000000 -1.000000 0.000000
vn 0.000000 -1.000000 0.000000
vn 0.000000 -1.000000 0.000000
vn 0.000000 -1.000000 0.000000
vn 0.000000 -1.000000 0.000000
vn 0.000000 -1.000000 0.000000
vn 0.000000 -1.000000 0.000000
vn 0.000000 -1.000000 0.000000
vn 0.000000 -1.000000 0.000000
vn 0.000000 -1.000000 0.000000
vn 0.000000 -1.000000 0.000000
vn 0.000000 1.000000 0.000000
vn 0.000000 1.000000 0.000000
vn 0.000000 1.000000 -0.000000
vn 0.000000 1.000000 0.000000
vn 0.000000 1.000000 0.000000
vn 0.000000 1.000000 -0.000000
vn 0.000000 1.000000 -0.000000
vn 0.000000 1.000000 0.000000
vn 0.000000 1.000000 0.000000
vn 0.000000 1.000000 0.000000
vn 0.000000 1.000000 0.000000
vn 0.000000 1.000000 0.000000
vn 0.000000 1.000000 0.000000
vn 0.000000 1.000000 0.000000
vn 0.000000 1.000000 0.000000
vn 0.000000 1.000000 -0.000000
vn 0.000000 1.000000 -0.000000
vn 0.000000 1.000000 0.000000
vn 0.000000 1.000000 0.000000
vn 0.000000 1.000000 0.000000
vn 0.000000 1.000000 0.000000
f 43/46/241 44/47/242 63/67/243
f 44/47/242 64/68/244 63/67/243
f 44/47/242 45/48/245 64/68/244
f 45/48/245 65/69/246 64/68/244
f 45/48/245 46/49/247 65/69/246
f 46/49/247 66/70/248 65/69/246
f 46/49/247 47/50/249 66/70/248
f 47/50/249 67/71/250 66/70/248
f 47/50/249 48/51/251 67/71/250
f 48/51/251 68/72/252 67/71/250
f 48/51/251 49/52/253 68/72/252
f 49/52/253 69/73/254 68/72/252
f 49/52/253 50/53/255 69/73/254
f 50/53/255 70/74/256 69/73/254
f 50/53/255 51/54/257 70/74/256
f 51/54/257 71/75/258 70/74/256
f 51/54/257 52/55/259 71/75/258
f 52/55/259 72/76/260 71/75/258
f 52/55/259 53/56/261 72/76/260
f 53/56/261 73/77/262 72/76/260
f 53/56/261 54/57/263 73/77/262
f 54/57/263 74/78/264 73/77/262
f 54/57/263 55/58/265 74/78/264
f 55/58/265 75/79/266 74/78/264
f 55/58/265 56/59/267 75/79/266
f 56/59/267 76/80/268 75/79/266
f 56/59/267 57/60/269 76/80/268
f 57/60/269 77/81/270 76/80/268
f 57/60/269 58/61/271 77/81/270
f 58/61/271 78/82/272 77/81/270
f 58/61/271 59/62/273 78/82/272
f 59/62/273 79/83/274 78/82/272
f 59/62/273 60/63/275 79/83/274
f 60/63/275 80/84/276 79/83/274
f 60/63/275 61/64/277 80/84/276
f 61/64/277 81/85/278 80/84/276
f 61/64/277 62/65/279 81/85/278
f 62/65/279 82/86/280 81/85/278
f 62/65/279 43/66/241 82/86/280
f 43/66/241 63/87/243 82/86/280
f 44/47/281 43/46/282 83/45/283
f 45/48/284 44/47/281 83/45/283
f 46/49/285 45/48/284 83/45/283
f 47/50/286 46/49/285 83/45/283
f 48/51/287 47/50/286 83/45/283
f 49/52/288 48/51/287 83/45/283
f 50/53/289 49/52/288 83/45/283
f 51/54/290 50/53/289 83/45/283
f 52/55/291 51/54/290 83/45/283
f 53/56/292 52/55/291 83/45/283
f 54/57/293 53/56/292 83/45/283
f 55/58/294 54/57/293 83/45/283
f 56/59/295 55/58/294 83/45/283
f 57/60/296 56/59/295 83/45/283
f 58/61/297 57/60/296 83/45/283
f 59/62/298 58/61/297 83/45/283
f 60/63/299 59/62/298 83/45/283
f 61/64/300 60/63/299 83/45/283
f 62/65/301 61/64/300 83/45/283
f 43/66/282 62/65/301 83/45/283
f 63/67/302 64/68/303 84/88/304
f 64/68/303 65/69/305 84/88/304
f 65/69/305 66/70/306 84/88/304
f 66/70/306 67/71/307 84/88/304
f 67/71/307 68/72/308 84/88/304
f 68/72/308 69/73/309 84/88/304
f 69/73/309 70/74/310 84/88/304
f 70/74/310 71/75/311 84/88/304
f 71/75/311 72/76/312 84/88/304
f 72/76/312 73/77/313 84/88/304
f 73/77/313 74/78/314 84/88/304
f 74/78/314 75/79/315 84/88/304
f 75/79/315 76/80/316 84/88/304
f 76/80/316 77/81/317 84/88/304
f 77/81/317 78/82/318 84/88/304
f 78/82/318 79/83/319 84/88/304
f 79/83/319 80/84/320 84/88/304
f 80/84/320 81/85/321 84/88/304
f 81/85/321 82/86/322 84/88/304
f 82/86/322 63/87/302 84/88/304
